<svg xmlns="http://www.w3.org/2000/svg" id="canvas" viewBox="191.771 238.897 1085.739 121.023"><path d="M 273.85,242.85 C 273.22 242.34, 272.44 242.06, 270.77 241.96 C 269.10 241.86, 267.94 241.81, 265.52 242.35 C 263.10 242.88, 261.50 243.41, 258.65 244.63 C 255.80 245.86, 254.33 246.78, 251.28 248.49 C 248.24 250.21, 246.58 251.27, 243.42 253.21 C 240.25 255.15, 238.52 256.15, 235.46 258.20 C 232.39 260.24, 230.78 261.33, 228.08 263.43 C 225.38 265.54, 223.95 266.57, 221.97 268.72 C 219.98 270.86, 219.17 271.97, 218.16 274.15 C 217.15 276.33, 216.92 277.45, 216.91 279.61 C 216.91 281.77, 217.13 282.85, 218.15 284.94 C 219.17 287.03, 219.92 288.18, 222.01 290.05 C 224.09 291.93, 225.69 292.80, 228.58 294.31 C 231.47 295.81, 233.19 296.30, 236.44 297.57 C 239.70 298.85, 241.49 299.39, 244.83 300.68 C 248.18 301.98, 250.01 302.65, 253.19 304.04 C 256.36 305.43, 257.96 306.06, 260.71 307.62 C 263.47 309.18, 264.79 310.11, 266.98 311.85 C 269.17 313.59, 270.19 314.54, 271.67 316.32 C 273.14 318.09, 273.74 318.98, 274.36 320.73 C 274.99 322.47, 275.14 323.26, 274.79 325.03 C 274.44 326.80, 273.94 327.67, 272.60 329.59 C 271.27 331.50, 270.49 332.59, 268.12 334.59 C 265.75 336.60, 264.21 337.68, 260.75 339.60 C 257.28 341.53, 255.13 342.61, 250.81 344.20 C 246.50 345.80, 243.91 346.56, 239.18 347.58 C 234.46 348.60, 231.74 348.91, 227.18 349.30 C 222.61 349.69, 220.25 349.73, 216.35 349.53 C 212.45 349.33, 210.62 349.00, 207.68 348.30 C 204.73 347.60, 203.59 346.84, 201.62 346.02 C 199.66 345.21, 199.04 344.86, 197.86 344.22 C 196.67 343.59, 196.30 342.97, 195.69 342.86 C 195.07 342.75, 194.68 342.99, 194.79 343.68 C 194.91 344.36, 195.20 345.19, 196.28 346.29 C 197.36 347.39, 198.04 348.12, 200.18 349.18 C 202.32 350.24, 203.74 350.95, 206.96 351.59 C 210.17 352.23, 212.16 352.32, 216.25 352.39 C 220.34 352.45, 222.72 352.37, 227.41 351.93 C 232.11 351.48, 234.86 351.16, 239.73 350.15 C 244.60 349.13, 247.26 348.39, 251.76 346.85 C 256.26 345.31, 258.49 344.30, 262.23 342.44 C 265.98 340.58, 267.75 339.66, 270.50 337.55 C 273.25 335.43, 274.40 334.25, 275.98 331.87 C 277.55 329.48, 278.00 328.08, 278.36 325.63 C 278.71 323.17, 278.49 321.94, 277.75 319.60 C 277.02 317.25, 276.36 316.06, 274.68 313.90 C 273.00 311.74, 271.80 310.69, 269.35 308.81 C 266.90 306.93, 265.39 306.08, 262.43 304.50 C 259.48 302.91, 257.82 302.29, 254.56 300.88 C 251.30 299.47, 249.45 298.79, 246.12 297.44 C 242.78 296.09, 240.98 295.49, 237.88 294.12 C 234.78 292.76, 233.19 292.09, 230.59 290.60 C 227.99 289.12, 226.72 288.19, 224.88 286.70 C 223.03 285.21, 222.31 284.57, 221.38 283.15 C 220.44 281.73, 220.23 281.07, 220.21 279.59 C 220.19 278.10, 220.34 277.36, 221.27 275.73 C 222.19 274.09, 223.03 273.32, 224.84 271.41 C 226.65 269.51, 227.81 268.29, 230.31 266.21 C 232.82 264.13, 234.37 263.03, 237.35 261.03 C 240.33 259.02, 242.06 258.02, 245.20 256.19 C 248.34 254.36, 250.03 253.35, 253.06 251.89 C 256.08 250.44, 257.60 249.89, 260.33 248.92 C 263.07 247.95, 264.55 247.69, 266.73 247.04 C 268.91 246.39, 269.80 246.15, 271.24 245.65 C 272.68 245.15, 273.39 245.10, 273.91 244.55 C 274.44 243.99, 274.48 243.37, 273.85 242.85" style="stroke: black; fill: black;"/><path d="M 306.38,306.10 C 305.84 306.87, 305.82 307.88, 305.42 309.85 C 305.01 311.83, 304.79 313.31, 304.35 315.98 C 303.91 318.65, 303.80 320.42, 303.23 323.22 C 302.66 326.02, 302.07 327.50, 301.51 329.97 C 300.94 332.43, 300.67 333.72, 300.40 335.56 C 300.12 337.39, 299.94 338.34, 300.14 339.15 C 300.35 339.96, 300.75 340.12, 301.42 339.60 C 302.09 339.08, 302.61 338.23, 303.48 336.56 C 304.35 334.88, 304.89 333.68, 305.77 331.22 C 306.65 328.77, 307.18 327.19, 307.90 324.28 C 308.63 321.37, 309.10 319.51, 309.39 316.65 C 309.69 313.79, 309.65 312.12, 309.39 309.99 C 309.13 307.87, 308.70 306.81, 308.10 306.03 C 307.49 305.25, 306.91 305.34, 306.38 306.10" style="stroke: black; fill: black;"/><path d="M 314.87,261.63 C 315.31 261.01, 315.49 260.37, 315.26 260.29 C 315.04 260.21, 314.16 260.91, 313.75 261.23 C 313.33 261.55, 313.24 261.78, 313.18 261.91 C 313.12 262.03, 313.50 261.75, 313.43 261.86 C 313.37 261.97, 313.18 262.07, 312.85 262.46 C 312.53 262.85, 311.78 263.64, 311.82 263.82 C 311.87 264.00, 312.46 263.81, 313.07 263.37 C 313.68 262.93, 314.43 262.24, 314.87 261.63" style="stroke: black; fill: black;"/><path d="M 372.34,313.68 C 372.44 312.97, 372.26 312.36, 371.59 311.30 C 370.92 310.25, 370.39 309.46, 369.00 308.39 C 367.61 307.31, 366.62 306.67, 364.64 305.93 C 362.67 305.19, 361.49 304.87, 359.12 304.68 C 356.75 304.49, 355.35 304.49, 352.79 304.99 C 350.24 305.49, 348.89 305.98, 346.35 307.17 C 343.82 308.37, 342.49 309.17, 340.10 310.97 C 337.72 312.77, 336.51 313.92, 334.45 316.19 C 332.39 318.46, 331.29 319.74, 329.83 322.32 C 328.36 324.90, 327.81 326.42, 327.12 329.08 C 326.43 331.74, 326.27 333.16, 326.38 335.62 C 326.50 338.08, 326.69 339.41, 327.69 341.36 C 328.68 343.31, 329.56 344.25, 331.34 345.37 C 333.13 346.49, 334.28 346.80, 336.63 346.95 C 338.99 347.09, 340.42 347.03, 343.12 346.08 C 345.83 345.13, 347.35 344.17, 350.16 342.19 C 352.96 340.20, 354.31 338.91, 357.14 336.15 C 359.98 333.39, 361.57 331.80, 364.32 328.40 C 367.07 325.00, 368.42 323.01, 370.90 319.15 C 373.38 315.29, 374.59 313.20, 376.72 309.10 C 378.84 305.00, 379.77 302.80, 381.52 298.65 C 383.28 294.49, 384.10 292.26, 385.49 288.34 C 386.88 284.41, 387.44 282.47, 388.47 279.03 C 389.50 275.60, 389.96 273.97, 390.64 271.18 C 391.32 268.38, 391.56 267.11, 391.87 265.05 C 392.17 262.99, 392.35 262.13, 392.17 260.86 C 392.00 259.60, 391.65 258.99, 390.97 258.71 C 390.30 258.42, 389.63 258.52, 388.81 259.46 C 387.99 260.39, 387.49 261.09, 386.89 263.39 C 386.29 265.69, 386.30 267.37, 385.82 270.94 C 385.33 274.51, 385.07 276.80, 384.45 281.24 C 383.83 285.68, 383.39 288.30, 382.72 293.12 C 382.05 297.94, 381.61 300.67, 381.11 305.34 C 380.61 310.00, 380.36 312.36, 380.21 316.45 C 380.07 320.54, 380.00 322.55, 380.37 325.80 C 380.74 329.05, 381.28 330.61, 382.06 332.69 C 382.84 334.77, 383.59 335.58, 384.26 336.20 C 384.94 336.81, 385.30 336.61, 385.42 335.76 C 385.55 334.91, 385.21 334.00, 384.88 331.93 C 384.54 329.86, 384.11 328.50, 383.75 325.41 C 383.39 322.33, 383.07 320.46, 383.08 316.50 C 383.08 312.55, 383.30 310.21, 383.78 305.62 C 384.25 301.02, 384.69 298.29, 385.45 293.53 C 386.21 288.76, 386.68 286.14, 387.58 281.78 C 388.47 277.41, 389.10 275.19, 389.93 271.71 C 390.75 268.23, 391.36 266.67, 391.70 264.38 C 392.04 262.08, 391.88 261.32, 391.63 260.25 C 391.38 259.18, 390.92 258.95, 390.45 259.02 C 389.99 259.08, 389.71 259.49, 389.29 260.56 C 388.86 261.63, 388.80 262.41, 388.33 264.37 C 387.86 266.33, 387.54 267.57, 386.96 270.34 C 386.37 273.11, 386.24 274.79, 385.40 278.20 C 384.57 281.62, 384.07 283.53, 382.80 287.42 C 381.52 291.30, 380.73 293.52, 379.04 297.61 C 377.35 301.70, 376.45 303.87, 374.36 307.88 C 372.27 311.89, 371.05 313.92, 368.59 317.64 C 366.12 321.37, 364.78 323.29, 362.04 326.50 C 359.29 329.71, 357.68 331.21, 354.86 333.69 C 352.05 336.17, 350.62 337.25, 347.97 338.90 C 345.32 340.54, 343.88 341.07, 341.62 341.91 C 339.36 342.74, 338.37 342.96, 336.67 343.06 C 334.98 343.16, 334.28 343.04, 333.13 342.39 C 331.98 341.75, 331.50 341.20, 330.93 339.83 C 330.37 338.46, 330.27 337.48, 330.29 335.55 C 330.32 333.61, 330.43 332.37, 331.08 330.16 C 331.72 327.94, 332.21 326.67, 333.51 324.45 C 334.82 322.24, 335.75 321.07, 337.60 319.08 C 339.45 317.09, 340.63 316.08, 342.75 314.49 C 344.88 312.91, 346.06 312.19, 348.24 311.15 C 350.41 310.11, 351.54 309.71, 353.63 309.31 C 355.72 308.90, 356.86 308.93, 358.71 309.13 C 360.57 309.33, 361.40 309.67, 362.90 310.31 C 364.40 310.95, 365.00 311.57, 366.21 312.33 C 367.41 313.09, 367.93 313.62, 368.91 314.12 C 369.89 314.63, 370.40 314.95, 371.09 314.86 C 371.78 314.77, 372.24 314.39, 372.34 313.68" style="stroke: black; fill: black;"/><path d="M 435.45,312.08 C 436.08 311.84, 436.51 311.38, 436.79 310.47 C 437.08 309.57, 437.20 308.83, 436.90 307.57 C 436.60 306.32, 436.32 305.41, 435.29 304.19 C 434.26 302.98, 433.39 302.24, 431.73 301.49 C 430.07 300.75, 429.10 300.56, 426.99 300.46 C 424.89 300.36, 423.64 300.35, 421.22 300.98 C 418.81 301.62, 417.37 302.15, 414.93 303.64 C 412.49 305.13, 411.16 306.21, 409.01 308.44 C 406.86 310.67, 405.83 312.11, 404.17 314.80 C 402.52 317.50, 401.71 319.04, 400.72 321.91 C 399.73 324.79, 399.37 326.42, 399.23 329.19 C 399.09 331.97, 399.33 333.50, 400.03 335.79 C 400.73 338.09, 401.31 339.09, 402.73 340.67 C 404.15 342.25, 405.11 342.97, 407.13 343.70 C 409.15 344.43, 410.48 344.60, 412.82 344.33 C 415.17 344.07, 416.42 343.71, 418.85 342.38 C 421.27 341.05, 422.52 340.11, 424.94 337.67 C 427.36 335.23, 428.59 333.58, 430.94 330.18 C 433.29 326.78, 434.50 324.80, 436.70 320.68 C 438.91 316.57, 440.03 314.15, 441.98 309.60 C 443.94 305.06, 444.85 302.54, 446.47 297.97 C 448.09 293.40, 448.77 291.06, 450.08 286.75 C 451.38 282.44, 451.96 280.26, 453.00 276.43 C 454.05 272.61, 454.60 270.79, 455.28 267.62 C 455.96 264.45, 456.20 262.99, 456.40 260.58 C 456.61 258.17, 456.65 257.04, 456.29 255.55 C 455.93 254.06, 455.42 253.32, 454.60 253.12 C 453.79 252.92, 452.99 253.15, 452.21 254.53 C 451.42 255.91, 451.03 257.03, 450.69 260.03 C 450.35 263.02, 450.61 265.09, 450.50 269.51 C 450.39 273.93, 450.32 276.84, 450.13 282.13 C 449.94 287.42, 449.80 290.43, 449.55 295.95 C 449.31 301.47, 449.15 304.50, 448.92 309.73 C 448.69 314.95, 448.59 317.64, 448.41 322.07 C 448.24 326.50, 447.99 328.65, 448.03 331.86 C 448.08 335.08, 448.32 336.30, 448.62 338.15 C 448.92 339.99, 449.15 340.52, 449.53 341.10 C 449.91 341.67, 450.20 341.65, 450.51 341.04 C 450.83 340.43, 450.94 339.89, 451.09 338.05 C 451.25 336.21, 451.30 335.02, 451.29 331.84 C 451.28 328.65, 451.04 326.53, 451.04 322.12 C 451.04 317.72, 451.10 315.03, 451.28 309.82 C 451.45 304.61, 451.62 301.57, 451.92 296.07 C 452.23 290.56, 452.40 287.54, 452.80 282.28 C 453.20 277.01, 453.41 274.10, 453.92 269.75 C 454.43 265.40, 455.08 263.43, 455.36 260.51 C 455.63 257.59, 455.50 256.53, 455.28 255.15 C 455.05 253.78, 454.63 253.55, 454.23 253.64 C 453.84 253.74, 453.60 254.31, 453.30 255.62 C 453.01 256.93, 453.03 257.94, 452.75 260.21 C 452.48 262.48, 452.45 263.89, 451.94 266.99 C 451.43 270.09, 451.07 271.92, 450.20 275.72 C 449.32 279.53, 448.78 281.72, 447.56 286.00 C 446.33 290.28, 445.66 292.61, 444.07 297.12 C 442.48 301.64, 441.57 304.13, 439.60 308.56 C 437.63 313.00, 436.49 315.37, 434.23 319.31 C 431.97 323.25, 430.70 325.15, 428.31 328.26 C 425.91 331.37, 424.55 332.78, 422.25 334.86 C 419.95 336.94, 418.80 337.57, 416.81 338.67 C 414.81 339.77, 413.97 340.06, 412.26 340.36 C 410.56 340.67, 409.67 340.60, 408.28 340.21 C 406.90 339.81, 406.25 339.46, 405.32 338.38 C 404.40 337.30, 404.06 336.59, 403.65 334.81 C 403.25 333.03, 403.11 331.77, 403.32 329.47 C 403.52 327.17, 403.81 325.79, 404.69 323.30 C 405.58 320.81, 406.24 319.37, 407.73 317.02 C 409.22 314.67, 410.23 313.42, 412.15 311.54 C 414.06 309.65, 415.26 308.82, 417.32 307.59 C 419.37 306.35, 420.52 305.92, 422.42 305.37 C 424.33 304.82, 425.36 304.83, 426.86 304.84 C 428.36 304.85, 428.96 304.96, 429.93 305.42 C 430.91 305.88, 431.20 306.46, 431.74 307.14 C 432.28 307.82, 432.39 308.19, 432.64 308.81 C 432.89 309.44, 432.77 309.67, 432.97 310.25 C 433.18 310.82, 433.15 311.31, 433.64 311.68 C 434.14 312.04, 434.82 312.32, 435.45 312.08" style="stroke: black; fill: black;"/><path d="M 491.36,259.46 C 490.89 259.91, 490.74 260.20, 490.44 261.65 C 490.13 263.10, 489.89 264.06, 489.84 266.70 C 489.80 269.34, 490.21 271.14, 490.21 274.87 C 490.21 278.59, 490.14 280.99, 489.84 285.33 C 489.53 289.68, 489.22 292.14, 488.69 296.59 C 488.16 301.03, 487.85 303.44, 487.19 307.57 C 486.54 311.69, 486.05 313.69, 485.42 317.19 C 484.80 320.69, 484.28 322.42, 484.09 325.09 C 483.90 327.76, 483.99 329.00, 484.47 330.54 C 484.95 332.07, 485.41 332.51, 486.48 332.76 C 487.56 333.02, 488.38 332.81, 489.83 331.83 C 491.29 330.85, 492.20 329.93, 493.77 327.87 C 495.35 325.81, 495.97 324.14, 497.71 321.52 C 499.45 318.90, 500.44 317.28, 502.48 314.76 C 504.52 312.24, 505.78 310.91, 507.93 308.92 C 510.08 306.94, 511.28 306.07, 513.23 304.82 C 515.19 303.58, 516.18 303.13, 517.72 302.70 C 519.27 302.26, 519.91 302.22, 520.95 302.66 C 521.99 303.09, 522.34 303.54, 522.92 304.89 C 523.50 306.23, 523.66 307.25, 523.86 309.39 C 524.06 311.54, 523.92 313.04, 523.92 315.61 C 523.93 318.18, 523.75 319.77, 523.87 322.25 C 523.99 324.72, 524.01 326.80, 524.51 327.98 C 525.02 329.17, 525.66 329.25, 526.38 328.17 C 527.11 327.09, 527.65 325.07, 528.15 322.57 C 528.64 320.07, 528.81 318.45, 528.86 315.66 C 528.92 312.88, 528.97 311.19, 528.42 308.66 C 527.87 306.13, 527.37 304.78, 526.11 303.01 C 524.85 301.23, 523.94 300.53, 522.13 299.80 C 520.31 299.07, 519.22 299.01, 517.04 299.34 C 514.85 299.67, 513.58 300.11, 511.22 301.44 C 508.86 302.77, 507.59 303.84, 505.23 305.98 C 502.87 308.13, 501.66 309.60, 499.41 312.17 C 497.16 314.74, 495.97 316.29, 493.98 318.82 C 492.00 321.36, 490.85 322.72, 489.48 324.84 C 488.10 326.96, 487.69 328.09, 487.11 329.43 C 486.53 330.77, 486.57 331.35, 486.57 331.53 C 486.58 331.71, 486.86 331.55, 487.13 330.33 C 487.39 329.12, 487.60 327.98, 487.90 325.45 C 488.20 322.91, 488.20 321.16, 488.63 317.67 C 489.06 314.18, 489.48 312.14, 490.06 307.99 C 490.64 303.85, 490.96 301.42, 491.54 296.94 C 492.13 292.47, 492.47 290.01, 492.99 285.63 C 493.51 281.25, 493.77 278.84, 494.13 275.06 C 494.50 271.27, 494.86 269.40, 494.81 266.70 C 494.76 263.99, 494.29 263.00, 493.88 261.54 C 493.48 260.08, 493.31 259.82, 492.81 259.41 C 492.30 258.99, 491.84 259.01, 491.36 259.46" style="stroke: black; fill: black;"/><path d="M 567.12,299.54 C 566.68 298.96, 566.03 298.59, 564.75 298.35 C 563.48 298.11, 562.65 298.01, 560.76 298.33 C 558.87 298.65, 557.54 298.82, 555.29 299.94 C 553.05 301.06, 551.68 301.95, 549.52 303.93 C 547.35 305.91, 546.32 307.29, 544.47 309.85 C 542.61 312.40, 541.65 313.85, 540.25 316.71 C 538.86 319.58, 538.13 321.30, 537.48 324.19 C 536.84 327.09, 536.81 328.68, 537.04 331.18 C 537.27 333.69, 537.57 334.79, 538.64 336.70 C 539.70 338.60, 540.53 339.61, 542.37 340.70 C 544.20 341.80, 545.54 342.18, 547.83 342.18 C 550.12 342.17, 551.40 341.76, 553.82 340.68 C 556.24 339.59, 557.56 338.79, 559.94 336.75 C 562.32 334.71, 563.51 333.21, 565.72 330.48 C 567.92 327.74, 569.01 326.00, 570.97 323.08 C 572.92 320.16, 573.96 318.53, 575.50 315.88 C 577.03 313.23, 577.81 311.85, 578.66 309.82 C 579.50 307.80, 579.74 306.75, 579.72 305.75 C 579.71 304.76, 579.21 304.47, 578.60 304.84 C 577.98 305.21, 577.31 305.86, 576.64 307.59 C 575.97 309.32, 575.61 310.79, 575.25 313.48 C 574.89 316.18, 574.98 317.99, 574.85 321.08 C 574.72 324.16, 574.52 325.96, 574.58 328.91 C 574.64 331.86, 574.70 333.44, 575.14 335.82 C 575.57 338.21, 576.05 339.37, 576.74 340.85 C 577.44 342.33, 577.95 342.66, 578.62 343.24 C 579.28 343.82, 579.66 343.77, 580.05 343.75 C 580.44 343.73, 580.53 343.45, 580.59 343.13 C 580.64 342.82, 580.44 342.84, 580.32 342.17 C 580.21 341.51, 580.24 341.19, 580.02 339.81 C 579.80 338.42, 579.41 337.44, 579.22 335.27 C 579.03 333.09, 579.00 331.69, 579.07 328.93 C 579.15 326.17, 579.23 324.42, 579.59 321.47 C 579.96 318.52, 580.61 316.83, 580.91 314.17 C 581.20 311.51, 581.25 310.06, 581.07 308.18 C 580.88 306.31, 580.60 305.51, 579.96 304.81 C 579.32 304.11, 578.83 304.03, 577.86 304.67 C 576.90 305.30, 576.31 306.14, 575.13 307.98 C 573.96 309.82, 573.44 311.27, 571.98 313.87 C 570.52 316.47, 569.67 318.17, 567.82 320.99 C 565.96 323.81, 564.84 325.48, 562.71 327.97 C 560.57 330.45, 559.28 331.65, 557.14 333.42 C 554.99 335.19, 553.87 335.84, 551.98 336.82 C 550.08 337.80, 549.23 338.15, 547.66 338.31 C 546.09 338.47, 545.33 338.27, 544.13 337.62 C 542.93 336.98, 542.32 336.41, 541.66 335.08 C 541.00 333.75, 540.83 332.97, 540.83 330.99 C 540.83 329.01, 541.02 327.67, 541.65 325.18 C 542.29 322.69, 542.74 321.09, 543.99 318.54 C 545.25 316.00, 546.18 314.66, 547.92 312.45 C 549.66 310.24, 550.77 309.12, 552.68 307.49 C 554.59 305.85, 555.65 305.20, 557.47 304.27 C 559.30 303.35, 560.31 303.30, 561.79 302.86 C 563.27 302.41, 563.84 302.34, 564.87 302.03 C 565.90 301.72, 566.50 301.78, 566.95 301.29 C 567.40 300.79, 567.56 300.13, 567.12 299.54" style="stroke: black; fill: black;"/><path d="M 606.63,313.03 C 605.99 313.53, 605.69 314.24, 605.11 315.77 C 604.52 317.30, 604.17 318.46, 603.71 320.68 C 603.25 322.91, 603.11 324.48, 602.81 326.88 C 602.51 329.29, 602.25 330.70, 602.20 332.69 C 602.14 334.69, 602.21 335.77, 602.54 336.84 C 602.86 337.91, 603.20 338.09, 603.81 338.05 C 604.43 338.01, 604.97 337.72, 605.61 336.65 C 606.25 335.58, 606.53 334.65, 607.02 332.69 C 607.50 330.72, 607.53 329.36, 608.03 326.83 C 608.53 324.30, 608.71 322.79, 609.52 320.06 C 610.33 317.32, 610.94 315.78, 612.08 313.16 C 613.21 310.54, 613.91 309.21, 615.20 306.95 C 616.49 304.70, 617.10 303.68, 618.54 301.89 C 619.98 300.10, 620.85 299.30, 622.39 298.03 C 623.94 296.75, 624.68 296.25, 626.27 295.50 C 627.85 294.76, 628.79 294.70, 630.32 294.32 C 631.86 293.94, 632.73 293.94, 633.95 293.61 C 635.17 293.29, 635.93 293.17, 636.43 292.69 C 636.94 292.22, 636.99 291.73, 636.46 291.25 C 635.92 290.76, 635.16 290.43, 633.76 290.25 C 632.37 290.07, 631.31 289.99, 629.47 290.33 C 627.63 290.68, 626.49 291.04, 624.58 291.97 C 622.67 292.91, 621.74 293.52, 619.92 295.00 C 618.10 296.48, 617.13 297.39, 615.47 299.35 C 613.81 301.32, 613.07 302.43, 611.61 304.84 C 610.15 307.25, 609.46 308.65, 608.18 311.41 C 606.90 314.16, 606.24 315.77, 605.19 318.62 C 604.15 321.47, 603.65 323.02, 602.96 325.66 C 602.26 328.30, 601.91 329.72, 601.73 331.82 C 601.55 333.92, 601.71 334.91, 602.04 336.17 C 602.37 337.43, 602.73 337.88, 603.38 338.12 C 604.04 338.35, 604.64 338.30, 605.33 337.35 C 606.02 336.41, 606.29 335.33, 606.83 333.39 C 607.36 331.45, 607.61 330.03, 608.01 327.64 C 608.40 325.25, 608.62 323.68, 608.81 321.43 C 609.00 319.17, 609.06 317.99, 608.96 316.37 C 608.86 314.74, 608.78 313.95, 608.31 313.29 C 607.84 312.62, 607.27 312.54, 606.63 313.03" style="stroke: black; fill: black;"/><path d="M 669.24,253.99 C 668.73 254.32, 668.52 254.58, 668.15 255.75 C 667.77 256.91, 667.52 257.67, 667.37 259.81 C 667.22 261.95, 667.34 263.36, 667.40 266.44 C 667.47 269.53, 667.78 271.49, 667.69 275.23 C 667.60 278.98, 667.34 280.99, 666.95 285.16 C 666.56 289.34, 666.30 291.76, 665.73 296.11 C 665.17 300.47, 664.77 302.76, 664.11 306.94 C 663.46 311.13, 663.06 313.28, 662.44 317.05 C 661.83 320.83, 661.41 322.78, 661.02 325.81 C 660.63 328.84, 660.54 330.20, 660.48 332.21 C 660.42 334.22, 660.58 334.78, 660.71 335.86 C 660.85 336.95, 660.87 337.26, 661.14 337.64 C 661.41 338.02, 661.71 338.06, 662.06 337.75 C 662.41 337.44, 662.52 337.13, 662.88 336.10 C 663.24 335.06, 663.51 334.54, 663.87 332.57 C 664.23 330.60, 664.34 329.26, 664.66 326.25 C 664.99 323.23, 665.05 321.27, 665.51 317.49 C 665.97 313.72, 666.34 311.57, 666.96 307.38 C 667.57 303.18, 667.97 300.87, 668.58 296.50 C 669.19 292.12, 669.48 289.71, 670.02 285.50 C 670.57 281.30, 670.89 279.27, 671.30 275.48 C 671.71 271.68, 671.90 269.66, 672.09 266.53 C 672.27 263.41, 672.33 262.00, 672.23 259.86 C 672.13 257.72, 671.88 257.01, 671.57 255.85 C 671.27 254.69, 671.17 254.45, 670.70 254.08 C 670.24 253.71, 669.75 253.65, 669.24 253.99" style="stroke: black; fill: black;"/><path d="M 655.15,307.68 C 655.50 308.07, 655.64 308.16, 656.43 308.29 C 657.21 308.42, 657.72 308.45, 659.08 308.33 C 660.45 308.21, 661.23 307.99, 663.26 307.71 C 665.29 307.44, 666.60 307.33, 669.22 306.96 C 671.84 306.60, 673.65 306.44, 676.36 305.87 C 679.07 305.30, 680.64 304.90, 682.77 304.11 C 684.90 303.31, 686.24 302.64, 687.01 301.89 C 687.78 301.14, 687.63 300.67, 686.63 300.36 C 685.62 300.05, 684.20 300.24, 681.99 300.35 C 679.77 300.47, 678.26 300.62, 675.56 300.92 C 672.87 301.22, 671.13 301.49, 668.52 301.84 C 665.91 302.19, 664.58 302.32, 662.50 302.67 C 660.41 303.02, 659.51 303.14, 658.10 303.60 C 656.70 304.06, 656.17 304.42, 655.48 304.97 C 654.79 305.52, 654.72 305.80, 654.66 306.35 C 654.59 306.89, 654.79 307.29, 655.15 307.68" style="stroke: black; fill: black;"/><path d="M 708.70,256.47 C 708.25 257.00, 708.21 257.48, 708.02 258.89 C 707.83 260.30, 707.77 261.18, 707.76 263.52 C 707.75 265.87, 707.99 267.33, 707.99 270.62 C 707.99 273.92, 708.06 276.04, 707.75 280.02 C 707.43 284.00, 707.07 286.35, 706.43 290.54 C 705.79 294.73, 705.25 297.00, 704.55 300.98 C 703.85 304.96, 703.45 307.03, 702.93 310.44 C 702.42 313.86, 702.05 315.49, 701.98 318.06 C 701.90 320.63, 701.98 321.75, 702.55 323.29 C 703.12 324.84, 703.65 325.45, 704.83 325.78 C 706.00 326.10, 706.88 325.92, 708.43 324.94 C 709.98 323.95, 710.92 322.96, 712.58 320.86 C 714.24 318.76, 714.84 317.06, 716.74 314.43 C 718.65 311.81, 719.78 310.16, 722.09 307.74 C 724.40 305.32, 725.90 304.14, 728.31 302.31 C 730.71 300.49, 731.93 299.71, 734.13 298.62 C 736.32 297.53, 737.41 297.13, 739.29 296.87 C 741.18 296.61, 742.03 296.73, 743.54 297.30 C 745.06 297.88, 745.71 298.33, 746.87 299.74 C 748.03 301.14, 748.51 302.17, 749.32 304.33 C 750.13 306.49, 750.45 307.91, 750.93 310.55 C 751.41 313.20, 751.49 314.89, 751.73 317.56 C 751.96 320.23, 751.95 321.80, 752.09 323.91 C 752.23 326.02, 752.21 326.81, 752.44 328.12 C 752.67 329.43, 752.90 329.91, 753.24 330.47 C 753.58 331.03, 753.88 330.88, 754.14 330.92 C 754.39 330.97, 754.36 330.81, 754.52 330.69 C 754.67 330.57, 754.66 330.81, 754.90 330.31 C 755.14 329.80, 755.43 329.45, 755.70 328.17 C 755.97 326.89, 756.09 326.10, 756.24 323.91 C 756.38 321.72, 756.57 320.08, 756.42 317.23 C 756.27 314.38, 756.10 312.59, 755.49 309.66 C 754.88 306.74, 754.54 305.13, 753.38 302.62 C 752.22 300.11, 751.44 298.84, 749.71 297.12 C 747.98 295.40, 746.90 294.77, 744.74 294.01 C 742.57 293.25, 741.35 293.09, 738.90 293.31 C 736.44 293.53, 735.03 293.92, 732.45 295.11 C 729.87 296.30, 728.62 297.28, 726.00 299.26 C 723.37 301.24, 721.88 302.52, 719.33 305.01 C 716.78 307.49, 715.44 309.13, 713.26 311.68 C 711.08 314.23, 709.91 315.63, 708.42 317.78 C 706.93 319.92, 706.48 321.10, 705.82 322.40 C 705.15 323.70, 705.21 324.19, 705.10 324.28 C 704.98 324.38, 705.12 324.06, 705.24 322.86 C 705.37 321.66, 705.51 320.67, 705.72 318.28 C 705.93 315.88, 705.93 314.24, 706.30 310.88 C 706.67 307.52, 706.94 305.46, 707.57 301.49 C 708.21 297.52, 708.76 295.25, 709.47 291.03 C 710.19 286.81, 710.61 284.43, 711.16 280.39 C 711.71 276.34, 711.96 274.20, 712.23 270.80 C 712.51 267.40, 712.68 265.85, 712.55 263.40 C 712.42 260.95, 712.03 259.98, 711.58 258.56 C 711.12 257.13, 710.84 256.68, 710.26 256.26 C 709.69 255.84, 709.15 255.94, 708.70 256.47" style="stroke: black; fill: black;"/><path d="M 850.31,270.74 C 849.80 271.43, 849.61 272.17, 849.37 274.14 C 849.14 276.11, 849.10 277.45, 849.14 280.57 C 849.18 283.69, 849.50 285.76, 849.59 289.74 C 849.68 293.71, 849.68 296.11, 849.58 300.45 C 849.48 304.78, 849.32 307.17, 849.09 311.42 C 848.85 315.67, 848.71 317.94, 848.41 321.69 C 848.10 325.44, 847.61 327.34, 847.55 330.17 C 847.50 333.01, 847.67 334.35, 848.13 335.85 C 848.60 337.34, 849.13 337.72, 849.88 337.65 C 850.63 337.58, 851.20 337.05, 851.87 335.50 C 852.54 333.96, 852.97 332.74, 853.23 329.90 C 853.49 327.07, 853.07 325.04, 853.17 321.31 C 853.27 317.58, 853.37 315.29, 853.73 311.26 C 854.09 307.22, 854.34 305.15, 854.98 301.14 C 855.61 297.13, 856.01 295.04, 856.89 291.20 C 857.77 287.36, 858.21 285.48, 859.37 281.94 C 860.54 278.39, 861.16 276.67, 862.73 273.48 C 864.29 270.28, 865.22 268.70, 867.20 265.96 C 869.18 263.21, 870.31 261.81, 872.61 259.74 C 874.91 257.66, 876.28 256.77, 878.70 255.58 C 881.12 254.40, 882.44 254.07, 884.72 253.82 C 887.00 253.56, 888.16 253.70, 890.10 254.28 C 892.04 254.87, 892.99 255.37, 894.42 256.72 C 895.86 258.07, 896.52 259.02, 897.27 261.04 C 898.02 263.07, 898.18 264.28, 898.16 266.84 C 898.15 269.40, 898.06 270.95, 897.18 273.84 C 896.30 276.73, 895.58 278.39, 893.76 281.28 C 891.93 284.18, 890.52 285.67, 888.05 288.31 C 885.59 290.96, 884.00 292.32, 881.45 294.50 C 878.89 296.68, 877.24 297.49, 875.26 299.22 C 873.29 300.95, 872.39 301.74, 871.55 303.14 C 870.71 304.54, 870.64 305.14, 871.06 306.22 C 871.48 307.31, 872.05 307.81, 873.67 308.58 C 875.29 309.34, 876.58 309.59, 879.14 310.06 C 881.70 310.52, 883.43 310.38, 886.48 310.90 C 889.54 311.42, 891.35 311.70, 894.42 312.66 C 897.49 313.61, 899.22 314.28, 901.84 315.68 C 904.47 317.07, 905.71 317.98, 907.55 319.62 C 909.39 321.26, 910.11 322.12, 911.04 323.88 C 911.97 325.63, 912.22 326.59, 912.18 328.39 C 912.13 330.20, 911.87 331.02, 910.80 332.88 C 909.74 334.74, 908.95 335.69, 906.86 337.69 C 904.77 339.69, 903.44 340.94, 900.34 342.88 C 897.24 344.82, 895.26 345.78, 891.37 347.38 C 887.48 348.99, 885.19 349.79, 880.90 350.92 C 876.60 352.05, 874.15 352.47, 869.88 353.03 C 865.61 353.60, 863.31 353.75, 859.55 353.76 C 855.80 353.76, 853.96 353.48, 851.13 353.07 C 848.29 352.66, 847.08 352.37, 845.38 351.71 C 843.67 351.05, 843.11 350.74, 842.60 349.77 C 842.09 348.81, 842.46 348.09, 842.83 346.86 C 843.21 345.64, 843.92 344.99, 844.47 343.64 C 845.02 342.30, 845.69 341.06, 845.59 340.13 C 845.48 339.21, 844.89 338.70, 843.95 339.02 C 843.00 339.33, 841.80 340.26, 840.85 341.70 C 839.90 343.15, 839.37 344.36, 839.21 346.25 C 839.06 348.15, 839.11 349.49, 840.08 351.18 C 841.04 352.86, 841.92 353.58, 844.03 354.67 C 846.14 355.75, 847.51 356.16, 850.63 356.59 C 853.75 357.02, 855.69 356.96, 859.62 356.80 C 863.55 356.65, 865.87 356.46, 870.27 355.83 C 874.66 355.20, 877.16 354.77, 881.60 353.65 C 886.05 352.52, 888.39 351.76, 892.49 350.20 C 896.58 348.64, 898.68 347.77, 902.10 345.85 C 905.52 343.92, 907.15 342.82, 909.58 340.59 C 912.00 338.36, 913.00 337.14, 914.23 334.72 C 915.46 332.29, 915.73 330.94, 915.75 328.44 C 915.76 325.95, 915.40 324.61, 914.30 322.26 C 913.19 319.92, 912.34 318.72, 910.21 316.72 C 908.09 314.72, 906.58 313.81, 903.67 312.25 C 900.76 310.69, 898.92 310.07, 895.67 308.91 C 892.43 307.75, 890.59 307.27, 887.44 306.45 C 884.29 305.63, 882.52 305.12, 879.91 304.82 C 877.30 304.53, 875.91 304.81, 874.39 304.95 C 872.86 305.10, 872.44 305.53, 872.27 305.55 C 872.10 305.57, 872.43 305.69, 873.55 305.05 C 874.66 304.42, 875.77 303.94, 877.83 302.38 C 879.90 300.81, 881.32 299.58, 883.87 297.23 C 886.42 294.89, 888.00 293.45, 890.58 290.64 C 893.15 287.84, 894.68 286.32, 896.73 283.20 C 898.78 280.07, 899.69 278.29, 900.82 275.03 C 901.95 271.77, 902.34 269.98, 902.38 266.89 C 902.42 263.79, 902.09 262.16, 901.02 259.56 C 899.95 256.97, 898.98 255.67, 897.02 253.90 C 895.05 252.13, 893.73 251.48, 891.19 250.70 C 888.65 249.93, 887.15 249.73, 884.31 250.02 C 881.47 250.32, 879.82 250.75, 877.00 252.17 C 874.19 253.60, 872.72 254.78, 870.22 257.16 C 867.72 259.53, 866.56 261.06, 864.50 264.06 C 862.44 267.05, 861.50 268.73, 859.90 272.12 C 858.30 275.51, 857.67 277.32, 856.49 281.00 C 855.32 284.69, 854.90 286.61, 854.01 290.54 C 853.11 294.47, 852.72 296.58, 852.01 300.64 C 851.30 304.71, 851.04 306.81, 850.47 310.88 C 849.91 314.96, 849.67 317.27, 849.19 321.00 C 848.70 324.73, 848.20 326.70, 848.04 329.53 C 847.89 332.35, 848.10 333.56, 848.42 335.12 C 848.75 336.69, 849.18 337.22, 849.66 337.35 C 850.14 337.48, 850.45 337.16, 850.82 335.76 C 851.19 334.35, 851.36 333.10, 851.52 330.32 C 851.67 327.54, 851.49 325.61, 851.59 321.86 C 851.70 318.12, 851.82 315.84, 852.04 311.58 C 852.25 307.32, 852.43 304.92, 852.66 300.56 C 852.89 296.20, 853.01 293.79, 853.19 289.78 C 853.37 285.77, 853.60 283.67, 853.57 280.52 C 853.54 277.38, 853.39 276.02, 853.06 274.05 C 852.73 272.08, 852.47 271.35, 851.92 270.69 C 851.37 270.03, 850.81 270.05, 850.31 270.74" style="stroke: black; fill: black;"/><path d="M 931.39,334.25 C 931.95 334.82, 932.79 335.16, 934.25 335.31 C 935.71 335.47, 936.63 335.43, 938.70 335.02 C 940.76 334.62, 942.19 334.32, 944.58 333.29 C 946.98 332.26, 948.29 331.39, 950.68 329.86 C 953.07 328.33, 954.35 327.42, 956.53 325.63 C 958.71 323.85, 959.82 322.85, 961.59 320.96 C 963.35 319.07, 964.23 318.09, 965.36 316.20 C 966.49 314.32, 966.95 313.31, 967.24 311.52 C 967.53 309.73, 967.43 308.77, 966.82 307.25 C 966.21 305.74, 965.65 304.95, 964.19 303.94 C 962.73 302.93, 961.61 302.46, 959.53 302.20 C 957.44 301.93, 956.14 302.09, 953.76 302.62 C 951.37 303.15, 950.07 303.63, 947.60 304.85 C 945.12 306.07, 943.68 306.88, 941.37 308.72 C 939.06 310.56, 937.91 311.71, 936.04 314.05 C 934.18 316.38, 933.29 317.72, 932.03 320.39 C 930.77 323.07, 930.22 324.55, 929.75 327.41 C 929.28 330.28, 929.24 331.91, 929.69 334.72 C 930.14 337.53, 930.68 339.03, 932.00 341.45 C 933.32 343.87, 934.25 345.05, 936.31 346.83 C 938.37 348.62, 939.60 349.40, 942.32 350.37 C 945.03 351.33, 946.71 351.56, 949.88 351.66 C 953.05 351.76, 954.81 351.50, 958.18 350.87 C 961.55 350.23, 963.32 349.72, 966.73 348.49 C 970.14 347.26, 972.00 346.47, 975.24 344.70 C 978.49 342.92, 980.07 341.84, 982.97 339.62 C 985.86 337.40, 987.17 336.15, 989.71 333.60 C 992.26 331.04, 993.52 329.66, 995.71 326.85 C 997.91 324.04, 998.92 322.55, 1000.69 319.55 C 1002.46 316.54, 1003.20 314.90, 1004.56 311.82 C 1005.92 308.74, 1006.50 307.14, 1007.51 304.17 C 1008.52 301.19, 1008.98 299.72, 1009.60 296.93 C 1010.23 294.14, 1010.37 292.69, 1010.64 290.23 C 1010.90 287.76, 1011.01 286.64, 1010.93 284.61 C 1010.85 282.58, 1010.76 281.59, 1010.23 280.06 C 1009.71 278.54, 1009.36 277.83, 1008.31 276.99 C 1007.26 276.16, 1006.47 275.78, 1004.99 275.89 C 1003.51 275.99, 1002.49 276.27, 1000.92 277.53 C 999.34 278.79, 998.49 279.79, 997.11 282.18 C 995.73 284.57, 995.24 286.21, 994.01 289.48 C 992.78 292.75, 992.08 294.71, 990.97 298.52 C 989.87 302.34, 989.29 304.56, 988.48 308.57 C 987.67 312.58, 987.30 314.70, 986.92 318.58 C 986.53 322.45, 986.36 324.42, 986.54 327.96 C 986.71 331.50, 986.88 333.35, 987.79 336.28 C 988.70 339.21, 989.46 340.51, 991.08 342.63 C 992.70 344.75, 993.75 345.66, 995.91 346.89 C 998.06 348.13, 999.40 348.59, 1001.86 348.80 C 1004.31 349.00, 1005.86 348.61, 1008.17 347.91 C 1010.47 347.21, 1011.74 346.49, 1013.38 345.30 C 1015.02 344.11, 1015.96 342.92, 1016.36 341.97 C 1016.76 341.02, 1016.36 340.57, 1015.39 340.55 C 1014.43 340.53, 1013.22 341.26, 1011.52 341.89 C 1009.82 342.53, 1008.77 343.12, 1006.88 343.72 C 1004.98 344.32, 1003.88 344.87, 1002.04 344.87 C 1000.20 344.87, 999.30 344.61, 997.69 343.73 C 996.08 342.84, 995.25 342.16, 993.98 340.45 C 992.72 338.73, 992.18 337.69, 991.36 335.15 C 990.54 332.61, 990.15 331.00, 989.89 327.75 C 989.63 324.49, 989.71 322.58, 990.05 318.88 C 990.39 315.17, 990.74 313.09, 991.59 309.22 C 992.43 305.36, 993.03 303.19, 994.27 299.56 C 995.51 295.93, 996.37 294.06, 997.78 291.07 C 999.19 288.08, 1000.11 286.73, 1001.34 284.62 C 1002.56 282.51, 1003.04 281.68, 1003.89 280.52 C 1004.75 279.35, 1005.10 279.13, 1005.62 278.81 C 1006.13 278.49, 1006.21 278.50, 1006.47 278.91 C 1006.73 279.33, 1006.78 279.73, 1006.91 280.88 C 1007.05 282.02, 1007.17 282.87, 1007.12 284.64 C 1007.08 286.42, 1006.99 287.47, 1006.68 289.75 C 1006.38 292.04, 1006.16 293.42, 1005.61 296.07 C 1005.06 298.72, 1004.79 300.15, 1003.92 303.02 C 1003.06 305.88, 1002.53 307.45, 1001.29 310.41 C 1000.05 313.37, 999.36 314.94, 997.72 317.82 C 996.07 320.69, 995.12 322.10, 993.05 324.79 C 990.98 327.47, 989.78 328.82, 987.36 331.25 C 984.94 333.69, 983.69 334.89, 980.95 336.98 C 978.20 339.07, 976.71 340.08, 973.64 341.71 C 970.56 343.35, 968.78 344.07, 965.56 345.15 C 962.34 346.24, 960.64 346.65, 957.54 347.14 C 954.43 347.62, 952.81 347.70, 950.03 347.58 C 947.25 347.45, 945.87 347.27, 943.64 346.53 C 941.41 345.79, 940.49 345.26, 938.87 343.86 C 937.26 342.47, 936.59 341.49, 935.56 339.54 C 934.53 337.58, 934.09 336.37, 933.74 334.08 C 933.38 331.79, 933.39 330.47, 933.80 328.09 C 934.21 325.72, 934.68 324.47, 935.80 322.21 C 936.92 319.95, 937.73 318.79, 939.40 316.80 C 941.07 314.82, 942.11 313.85, 944.16 312.29 C 946.20 310.73, 947.50 310.04, 949.63 309.00 C 951.76 307.96, 952.90 307.59, 954.82 307.10 C 956.73 306.61, 957.70 306.56, 959.21 306.55 C 960.72 306.55, 961.43 306.72, 962.37 307.10 C 963.32 307.47, 963.64 307.69, 963.95 308.42 C 964.26 309.16, 964.29 309.65, 963.93 310.78 C 963.56 311.90, 963.20 312.62, 962.12 314.06 C 961.05 315.50, 960.23 316.37, 958.56 317.98 C 956.88 319.59, 955.82 320.54, 953.75 322.11 C 951.68 323.68, 950.42 324.51, 948.19 325.83 C 945.96 327.16, 944.76 327.81, 942.62 328.73 C 940.49 329.65, 939.26 329.86, 937.52 330.44 C 935.77 331.01, 935.11 331.21, 933.90 331.61 C 932.69 332.02, 931.96 331.95, 931.46 332.47 C 930.96 333.00, 930.83 333.68, 931.39 334.25" style="stroke: black; fill: black;"/><path d="M 1050.79,269.71 C 1050.32 270.03, 1050.23 270.16, 1049.83 271.26 C 1049.44 272.36, 1049.09 273.09, 1048.81 275.22 C 1048.53 277.34, 1048.63 278.81, 1048.43 281.91 C 1048.22 285.00, 1048.23 286.97, 1047.79 290.71 C 1047.34 294.45, 1046.92 296.72, 1046.20 300.61 C 1045.47 304.50, 1045.04 306.54, 1044.16 310.17 C 1043.29 313.80, 1042.79 315.57, 1041.84 318.76 C 1040.90 321.95, 1040.17 323.51, 1039.46 326.12 C 1038.75 328.73, 1038.47 329.92, 1038.29 331.82 C 1038.11 333.71, 1038.13 334.49, 1038.55 335.60 C 1038.97 336.70, 1039.40 337.13, 1040.39 337.35 C 1041.39 337.56, 1042.19 337.34, 1043.53 336.66 C 1044.86 335.98, 1045.48 335.33, 1047.08 333.95 C 1048.67 332.58, 1049.50 331.60, 1051.48 329.78 C 1053.47 327.96, 1054.67 326.68, 1056.98 324.86 C 1059.29 323.04, 1060.49 322.08, 1063.04 320.70 C 1065.59 319.31, 1067.11 318.75, 1069.72 317.94 C 1072.32 317.13, 1073.65 316.81, 1076.07 316.63 C 1078.48 316.45, 1079.70 316.57, 1081.80 317.04 C 1083.91 317.50, 1084.92 317.93, 1086.60 318.95 C 1088.28 319.96, 1089.07 320.64, 1090.20 322.12 C 1091.33 323.60, 1091.76 324.58, 1092.25 326.36 C 1092.74 328.15, 1092.79 329.18, 1092.63 331.06 C 1092.48 332.94, 1092.21 333.96, 1091.48 335.76 C 1090.75 337.56, 1090.26 338.51, 1088.97 340.06 C 1087.68 341.60, 1086.91 342.28, 1085.04 343.47 C 1083.16 344.67, 1081.97 345.20, 1079.59 346.04 C 1077.20 346.88, 1075.82 347.26, 1073.10 347.67 C 1070.38 348.07, 1068.85 348.21, 1066.00 348.06 C 1063.15 347.91, 1061.63 347.64, 1058.85 346.93 C 1056.06 346.22, 1054.57 345.57, 1052.07 344.52 C 1049.58 343.46, 1048.30 342.85, 1046.39 341.65 C 1044.47 340.44, 1043.68 339.70, 1042.51 338.49 C 1041.34 337.27, 1041.14 336.59, 1040.53 335.57 C 1039.91 334.55, 1039.93 333.79, 1039.45 333.40 C 1038.97 333.00, 1038.46 332.95, 1038.12 333.59 C 1037.79 334.22, 1037.48 335.12, 1037.79 336.58 C 1038.09 338.04, 1038.37 339.21, 1039.64 340.90 C 1040.91 342.59, 1041.98 343.54, 1044.14 345.04 C 1046.30 346.53, 1047.69 347.23, 1050.43 348.39 C 1053.18 349.55, 1054.81 350.10, 1057.88 350.84 C 1060.94 351.58, 1062.60 351.89, 1065.76 352.10 C 1068.92 352.31, 1070.62 352.26, 1073.68 351.87 C 1076.73 351.48, 1078.31 351.14, 1081.05 350.16 C 1083.78 349.18, 1085.13 348.48, 1087.35 346.99 C 1089.56 345.49, 1090.54 344.61, 1092.13 342.68 C 1093.72 340.74, 1094.39 339.58, 1095.31 337.32 C 1096.23 335.06, 1096.56 333.78, 1096.73 331.37 C 1096.90 328.96, 1096.84 327.59, 1096.16 325.26 C 1095.48 322.93, 1094.85 321.62, 1093.34 319.69 C 1091.83 317.77, 1090.75 316.91, 1088.62 315.62 C 1086.49 314.32, 1085.24 313.83, 1082.67 313.23 C 1080.11 312.63, 1078.63 312.45, 1075.80 312.61 C 1072.97 312.78, 1071.45 313.16, 1068.52 314.05 C 1065.59 314.94, 1063.96 315.63, 1061.13 317.08 C 1058.31 318.53, 1056.99 319.54, 1054.39 321.30 C 1051.79 323.07, 1050.29 324.12, 1048.12 325.91 C 1045.95 327.70, 1044.99 328.72, 1043.54 330.27 C 1042.09 331.82, 1041.53 332.54, 1040.85 333.65 C 1040.18 334.76, 1040.16 335.44, 1040.16 335.81 C 1040.16 336.17, 1040.52 336.14, 1040.84 335.47 C 1041.16 334.80, 1041.27 334.13, 1041.76 332.47 C 1042.25 330.81, 1042.59 329.71, 1043.28 327.15 C 1043.96 324.59, 1044.39 322.92, 1045.20 319.67 C 1046.01 316.42, 1046.46 314.59, 1047.31 310.91 C 1048.15 307.23, 1048.61 305.18, 1049.43 301.25 C 1050.26 297.32, 1050.72 295.05, 1051.45 291.28 C 1052.17 287.51, 1052.61 285.54, 1053.06 282.40 C 1053.52 279.26, 1053.71 277.78, 1053.74 275.57 C 1053.77 273.37, 1053.54 272.57, 1053.22 271.39 C 1052.91 270.21, 1052.68 270.01, 1052.19 269.67 C 1051.70 269.34, 1051.26 269.39, 1050.79 269.71" style="stroke: black; fill: black;"/><path d="M 1140.59,316.81 C 1140.84 316.20, 1140.83 315.61, 1140.36 314.72 C 1139.89 313.83, 1139.48 313.19, 1138.25 312.36 C 1137.03 311.53, 1136.14 310.98, 1134.23 310.57 C 1132.32 310.16, 1131.10 310.07, 1128.71 310.33 C 1126.31 310.59, 1124.89 310.89, 1122.27 311.87 C 1119.64 312.85, 1118.19 313.62, 1115.59 315.23 C 1112.98 316.84, 1111.64 317.86, 1109.24 319.91 C 1106.83 321.96, 1105.51 323.13, 1103.58 325.48 C 1101.66 327.82, 1100.73 329.20, 1099.61 331.65 C 1098.48 334.09, 1098.15 335.43, 1097.95 337.69 C 1097.74 339.94, 1097.90 341.07, 1098.57 342.91 C 1099.24 344.75, 1099.79 345.64, 1101.29 346.89 C 1102.80 348.14, 1103.90 348.72, 1106.11 349.16 C 1108.32 349.61, 1109.75 349.60, 1112.35 349.10 C 1114.96 348.59, 1116.34 348.01, 1119.12 346.63 C 1121.90 345.26, 1123.49 344.22, 1126.26 342.22 C 1129.03 340.21, 1130.41 338.93, 1132.96 336.63 C 1135.51 334.32, 1136.89 333.02, 1139.01 330.70 C 1141.12 328.38, 1142.20 327.07, 1143.56 325.03 C 1144.92 322.99, 1145.41 321.79, 1145.82 320.49 C 1146.22 319.18, 1146.03 318.65, 1145.56 318.49 C 1145.10 318.33, 1144.36 318.56, 1143.51 319.70 C 1142.66 320.83, 1142.04 321.94, 1141.33 324.16 C 1140.62 326.37, 1140.42 328.01, 1139.97 330.77 C 1139.51 333.52, 1139.25 335.19, 1139.05 337.95 C 1138.85 340.70, 1138.69 342.23, 1138.98 344.54 C 1139.26 346.85, 1139.83 348.01, 1140.48 349.49 C 1141.13 350.96, 1141.66 351.51, 1142.25 351.91 C 1142.84 352.32, 1143.20 352.14, 1143.43 351.51 C 1143.67 350.88, 1143.48 350.21, 1143.42 348.77 C 1143.36 347.33, 1143.09 346.38, 1143.15 344.33 C 1143.21 342.28, 1143.31 341.01, 1143.74 338.50 C 1144.17 335.99, 1144.71 334.41, 1145.28 331.79 C 1145.86 329.16, 1146.31 327.62, 1146.63 325.38 C 1146.95 323.14, 1147.05 322.04, 1146.89 320.60 C 1146.73 319.16, 1146.52 318.55, 1145.82 318.19 C 1145.13 317.83, 1144.53 317.93, 1143.41 318.81 C 1142.29 319.69, 1141.68 320.74, 1140.21 322.59 C 1138.73 324.43, 1137.99 325.80, 1136.03 328.04 C 1134.07 330.28, 1132.81 331.62, 1130.40 333.80 C 1127.99 335.98, 1126.63 337.19, 1123.98 338.95 C 1121.34 340.72, 1119.71 341.46, 1117.19 342.63 C 1114.68 343.79, 1113.52 344.26, 1111.42 344.76 C 1109.33 345.26, 1108.31 345.26, 1106.71 345.13 C 1105.10 345.00, 1104.39 344.78, 1103.40 344.12 C 1102.40 343.47, 1102.09 343.03, 1101.73 341.84 C 1101.37 340.65, 1101.29 339.84, 1101.59 338.16 C 1101.89 336.48, 1102.19 335.42, 1103.24 333.43 C 1104.29 331.44, 1105.11 330.25, 1106.85 328.19 C 1108.59 326.13, 1109.73 324.94, 1111.93 323.12 C 1114.14 321.29, 1115.48 320.43, 1117.87 319.06 C 1120.26 317.69, 1121.61 317.11, 1123.89 316.29 C 1126.16 315.48, 1127.36 315.21, 1129.24 314.99 C 1131.12 314.76, 1131.95 314.90, 1133.29 315.16 C 1134.63 315.42, 1135.06 315.87, 1135.93 316.29 C 1136.81 316.70, 1137.05 316.93, 1137.69 317.23 C 1138.33 317.52, 1138.55 317.83, 1139.14 317.75 C 1139.72 317.66, 1140.35 317.42, 1140.59 316.81" style="stroke: black; fill: black;"/><path d="M 1201.82,309.95 C 1201.68 309.35, 1201.50 308.98, 1200.58 308.41 C 1199.67 307.84, 1198.94 307.36, 1197.25 307.10 C 1195.56 306.84, 1194.34 306.86, 1192.12 307.10 C 1189.89 307.33, 1188.54 307.59, 1186.11 308.27 C 1183.67 308.95, 1182.19 309.45, 1179.93 310.49 C 1177.67 311.53, 1176.52 312.11, 1174.82 313.45 C 1173.11 314.80, 1172.28 315.62, 1171.41 317.21 C 1170.54 318.79, 1170.31 319.77, 1170.46 321.39 C 1170.61 323.00, 1171.06 323.81, 1172.17 325.27 C 1173.27 326.72, 1174.10 327.43, 1175.98 328.66 C 1177.85 329.89, 1179.19 330.42, 1181.54 331.41 C 1183.89 332.39, 1185.40 332.77, 1187.72 333.59 C 1190.05 334.42, 1191.30 334.82, 1193.17 335.54 C 1195.03 336.27, 1195.98 336.55, 1197.06 337.21 C 1198.14 337.86, 1198.36 338.17, 1198.57 338.83 C 1198.77 339.48, 1198.71 339.79, 1198.08 340.48 C 1197.45 341.17, 1196.91 341.47, 1195.42 342.27 C 1193.94 343.06, 1192.89 343.59, 1190.64 344.45 C 1188.39 345.31, 1186.91 345.87, 1184.19 346.57 C 1181.47 347.26, 1179.87 347.66, 1177.05 347.93 C 1174.23 348.20, 1172.64 348.01, 1170.07 347.93 C 1167.51 347.86, 1166.12 347.65, 1164.22 347.58 C 1162.31 347.50, 1161.35 347.32, 1160.55 347.58 C 1159.74 347.84, 1159.58 348.23, 1160.19 348.88 C 1160.79 349.53, 1161.65 350.14, 1163.57 350.83 C 1165.49 351.52, 1167.01 352.06, 1169.78 352.34 C 1172.55 352.63, 1174.34 352.50, 1177.44 352.25 C 1180.53 351.99, 1182.24 351.71, 1185.24 351.07 C 1188.24 350.43, 1189.92 350.08, 1192.46 349.04 C 1194.99 348.01, 1196.21 347.29, 1197.91 345.92 C 1199.61 344.54, 1200.27 343.73, 1200.96 342.17 C 1201.64 340.62, 1201.69 339.66, 1201.35 338.14 C 1201.01 336.61, 1200.54 335.82, 1199.26 334.53 C 1197.99 333.25, 1196.93 332.77, 1194.97 331.70 C 1193.00 330.63, 1191.75 330.16, 1189.45 329.18 C 1187.15 328.19, 1185.70 327.69, 1183.46 326.78 C 1181.23 325.87, 1180.01 325.42, 1178.28 324.60 C 1176.56 323.79, 1175.83 323.40, 1174.86 322.69 C 1173.88 321.98, 1173.54 321.76, 1173.42 321.04 C 1173.30 320.32, 1173.51 319.95, 1174.26 319.10 C 1175.00 318.25, 1175.66 317.68, 1177.14 316.81 C 1178.63 315.94, 1179.65 315.49, 1181.69 314.75 C 1183.73 314.00, 1185.15 313.60, 1187.34 313.09 C 1189.54 312.58, 1190.75 312.42, 1192.67 312.21 C 1194.59 312.00, 1195.53 312.09, 1196.94 312.02 C 1198.35 311.95, 1198.85 312.00, 1199.72 311.87 C 1200.59 311.75, 1200.86 311.78, 1201.28 311.39 C 1201.70 311.00, 1201.96 310.54, 1201.82 309.95" style="stroke: black; fill: black;"/><path d="M 1218.53,338.97 C 1219.22 339.45, 1220.02 339.63, 1221.81 339.67 C 1223.59 339.72, 1224.91 339.75, 1227.44 339.20 C 1229.98 338.66, 1231.55 338.03, 1234.46 336.96 C 1237.37 335.90, 1239.07 335.19, 1241.99 333.88 C 1244.92 332.56, 1246.54 331.83, 1249.07 330.39 C 1251.59 328.95, 1252.69 328.15, 1254.61 326.68 C 1256.54 325.22, 1257.45 324.53, 1258.69 323.06 C 1259.93 321.60, 1260.45 320.84, 1260.82 319.35 C 1261.18 317.86, 1261.17 316.99, 1260.53 315.61 C 1259.89 314.23, 1259.32 313.39, 1257.63 312.46 C 1255.94 311.53, 1254.66 311.16, 1252.09 310.97 C 1249.52 310.77, 1247.90 310.93, 1244.77 311.47 C 1241.65 312.01, 1239.83 312.53, 1236.47 313.67 C 1233.11 314.80, 1231.15 315.55, 1227.97 317.15 C 1224.80 318.76, 1223.09 319.59, 1220.59 321.68 C 1218.09 323.78, 1216.90 325.13, 1215.47 327.61 C 1214.04 330.09, 1213.57 331.47, 1213.44 334.08 C 1213.31 336.70, 1213.61 338.21, 1214.83 340.68 C 1216.04 343.16, 1217.06 344.56, 1219.53 346.47 C 1222.00 348.37, 1223.76 349.02, 1227.18 350.19 C 1230.60 351.36, 1232.63 351.73, 1236.65 352.32 C 1240.66 352.90, 1242.88 353.04, 1247.27 353.11 C 1251.66 353.19, 1254.49 352.98, 1258.59 352.69 C 1262.70 352.40, 1264.77 352.28, 1267.81 351.66 C 1270.84 351.05, 1272.61 350.30, 1273.74 349.60 C 1274.87 348.91, 1274.74 348.39, 1273.46 348.17 C 1272.18 347.95, 1270.36 348.24, 1267.34 348.51 C 1264.32 348.78, 1262.36 349.22, 1258.36 349.53 C 1254.36 349.83, 1251.57 350.13, 1247.33 350.05 C 1243.09 349.97, 1240.93 349.79, 1237.15 349.13 C 1233.38 348.47, 1231.46 347.94, 1228.44 346.75 C 1225.42 345.56, 1224.10 344.75, 1222.05 343.19 C 1219.99 341.62, 1219.20 340.71, 1218.17 338.92 C 1217.15 337.14, 1216.84 336.14, 1216.94 334.26 C 1217.04 332.39, 1217.47 331.47, 1218.69 329.54 C 1219.91 327.61, 1220.85 326.43, 1223.04 324.62 C 1225.23 322.81, 1226.72 321.93, 1229.64 320.49 C 1232.56 319.05, 1234.48 318.33, 1237.64 317.43 C 1240.80 316.53, 1242.59 316.33, 1245.44 316.00 C 1248.28 315.66, 1249.72 315.74, 1251.87 315.76 C 1254.02 315.77, 1254.94 315.84, 1256.18 316.08 C 1257.41 316.32, 1257.67 316.50, 1258.04 316.97 C 1258.41 317.43, 1258.40 317.68, 1258.02 318.40 C 1257.64 319.13, 1257.26 319.59, 1256.12 320.61 C 1254.99 321.62, 1254.16 322.27, 1252.33 323.48 C 1250.50 324.69, 1249.39 325.35, 1246.99 326.65 C 1244.58 327.95, 1243.11 328.81, 1240.31 329.99 C 1237.50 331.16, 1235.76 331.63, 1232.95 332.52 C 1230.14 333.41, 1228.59 333.74, 1226.25 334.41 C 1223.90 335.09, 1222.79 335.33, 1221.21 335.91 C 1219.63 336.49, 1218.88 336.69, 1218.34 337.31 C 1217.80 337.92, 1217.83 338.50, 1218.53 338.97" style="stroke: black; fill: black;"/></svg>